<mxfile host="app.diagrams.net" agent="Mozilla/5.0 (Windows NT 10.0; Win64; x64; rv:137.0) Gecko/20100101 Firefox/137.0" version="26.2.6">
  <diagram name="Seite-1" id="boUOmbTo3q_szxOBX8Ii">
    <mxGraphModel dx="1148" dy="693" grid="1" gridSize="10" guides="1" tooltips="1" connect="1" arrows="1" fold="1" page="1" pageScale="1" pageWidth="827" pageHeight="1169" math="0" shadow="0">
      <root>
        <mxCell id="0" />
        <mxCell id="1" parent="0" />
        <mxCell id="HwaLDH1rzLxvgT7s-ryW-1" style="edgeStyle=orthogonalEdgeStyle;rounded=0;orthogonalLoop=1;jettySize=auto;html=1;" edge="1" parent="1" source="HwaLDH1rzLxvgT7s-ryW-2" target="HwaLDH1rzLxvgT7s-ryW-4">
          <mxGeometry relative="1" as="geometry" />
        </mxCell>
        <mxCell id="HwaLDH1rzLxvgT7s-ryW-2" value="" style="ellipse;shape=startState;fillColor=#000000;strokeColor=#ff0000;" vertex="1" parent="1">
          <mxGeometry x="304.51" y="70" width="30" height="30" as="geometry" />
        </mxCell>
        <mxCell id="HwaLDH1rzLxvgT7s-ryW-18" style="edgeStyle=orthogonalEdgeStyle;rounded=0;orthogonalLoop=1;jettySize=auto;html=1;entryX=0.5;entryY=0;entryDx=0;entryDy=0;" edge="1" parent="1" source="HwaLDH1rzLxvgT7s-ryW-4" target="HwaLDH1rzLxvgT7s-ryW-16">
          <mxGeometry relative="1" as="geometry" />
        </mxCell>
        <mxCell id="HwaLDH1rzLxvgT7s-ryW-4" value="Galerie freigeben&#xa;drücken" style="" vertex="1" parent="1">
          <mxGeometry x="264.51" y="120" width="110" height="50" as="geometry" />
        </mxCell>
        <mxCell id="HwaLDH1rzLxvgT7s-ryW-5" style="edgeStyle=orthogonalEdgeStyle;rounded=0;orthogonalLoop=1;jettySize=auto;html=1;dashed=1;" edge="1" parent="1" source="HwaLDH1rzLxvgT7s-ryW-6" target="HwaLDH1rzLxvgT7s-ryW-7">
          <mxGeometry relative="1" as="geometry" />
        </mxCell>
        <mxCell id="HwaLDH1rzLxvgT7s-ryW-6" value="Man erhält einen Link &#xa;mit dem Token" style="shape=note;whiteSpace=wrap;size=17" vertex="1" parent="1">
          <mxGeometry x="389.9999999999999" y="460" width="165" height="50" as="geometry" />
        </mxCell>
        <mxCell id="HwaLDH1rzLxvgT7s-ryW-7" value="" style="ellipse;shape=endState;fillColor=#000000;strokeColor=#ff0000" vertex="1" parent="1">
          <mxGeometry x="305" y="470" width="30" height="30" as="geometry" />
        </mxCell>
        <mxCell id="HwaLDH1rzLxvgT7s-ryW-8" value="Galerie freigeben" style="shape=umlFrame;whiteSpace=wrap;html=1;pointerEvents=0;width=106;height=30;" vertex="1" parent="1">
          <mxGeometry x="200" y="60" width="370" height="470" as="geometry" />
        </mxCell>
        <mxCell id="HwaLDH1rzLxvgT7s-ryW-9" style="edgeStyle=orthogonalEdgeStyle;rounded=0;orthogonalLoop=1;jettySize=auto;html=1;entryX=0.5;entryY=1;entryDx=0;entryDy=0;" edge="1" parent="1" source="HwaLDH1rzLxvgT7s-ryW-13" target="HwaLDH1rzLxvgT7s-ryW-15">
          <mxGeometry relative="1" as="geometry">
            <Array as="points">
              <mxPoint x="490" y="320" />
              <mxPoint x="490" y="170" />
            </Array>
          </mxGeometry>
        </mxCell>
        <mxCell id="HwaLDH1rzLxvgT7s-ryW-10" value="Darf die Galerie nicht freigeben" style="edgeLabel;html=1;align=center;verticalAlign=middle;resizable=0;points=[];" vertex="1" connectable="0" parent="HwaLDH1rzLxvgT7s-ryW-9">
          <mxGeometry x="-0.3552" relative="1" as="geometry">
            <mxPoint x="-28" y="-15" as="offset" />
          </mxGeometry>
        </mxCell>
        <mxCell id="HwaLDH1rzLxvgT7s-ryW-11" style="edgeStyle=orthogonalEdgeStyle;rounded=0;orthogonalLoop=1;jettySize=auto;html=1;" edge="1" parent="1" source="HwaLDH1rzLxvgT7s-ryW-13" target="HwaLDH1rzLxvgT7s-ryW-21">
          <mxGeometry relative="1" as="geometry">
            <mxPoint x="319.5" y="580" as="targetPoint" />
          </mxGeometry>
        </mxCell>
        <mxCell id="HwaLDH1rzLxvgT7s-ryW-12" value="Darf Galerie freigeben" style="edgeLabel;html=1;align=center;verticalAlign=middle;resizable=0;points=[];" vertex="1" connectable="0" parent="HwaLDH1rzLxvgT7s-ryW-11">
          <mxGeometry x="0.3443" y="2" relative="1" as="geometry">
            <mxPoint x="-2" y="-13" as="offset" />
          </mxGeometry>
        </mxCell>
        <mxCell id="HwaLDH1rzLxvgT7s-ryW-13" value="" style="rhombus;fillColor=#ffffc0;strokeColor=#ff0000;" vertex="1" parent="1">
          <mxGeometry x="291.76" y="300" width="55.49" height="40" as="geometry" />
        </mxCell>
        <mxCell id="HwaLDH1rzLxvgT7s-ryW-14" style="edgeStyle=orthogonalEdgeStyle;rounded=0;orthogonalLoop=1;jettySize=auto;html=1;entryX=1;entryY=0.5;entryDx=0;entryDy=0;" edge="1" parent="1" source="HwaLDH1rzLxvgT7s-ryW-15" target="HwaLDH1rzLxvgT7s-ryW-4">
          <mxGeometry relative="1" as="geometry" />
        </mxCell>
        <mxCell id="HwaLDH1rzLxvgT7s-ryW-15" value="Fehlermeldung anzeigen" style="" vertex="1" parent="1">
          <mxGeometry x="415" y="120" width="140" height="50" as="geometry" />
        </mxCell>
        <mxCell id="HwaLDH1rzLxvgT7s-ryW-19" style="edgeStyle=orthogonalEdgeStyle;rounded=0;orthogonalLoop=1;jettySize=auto;html=1;entryX=0.5;entryY=0;entryDx=0;entryDy=0;" edge="1" parent="1" source="HwaLDH1rzLxvgT7s-ryW-16" target="HwaLDH1rzLxvgT7s-ryW-13">
          <mxGeometry relative="1" as="geometry" />
        </mxCell>
        <mxCell id="HwaLDH1rzLxvgT7s-ryW-16" value="Token/Benutzer &#xa;validieren" style="" vertex="1" parent="1">
          <mxGeometry x="264.51" y="200" width="110" height="50" as="geometry" />
        </mxCell>
        <mxCell id="HwaLDH1rzLxvgT7s-ryW-24" style="edgeStyle=orthogonalEdgeStyle;rounded=0;orthogonalLoop=1;jettySize=auto;html=1;entryX=0.5;entryY=0;entryDx=0;entryDy=0;" edge="1" parent="1" source="HwaLDH1rzLxvgT7s-ryW-21" target="HwaLDH1rzLxvgT7s-ryW-7">
          <mxGeometry relative="1" as="geometry" />
        </mxCell>
        <mxCell id="HwaLDH1rzLxvgT7s-ryW-21" value="Token generieren" style="" vertex="1" parent="1">
          <mxGeometry x="265" y="390" width="110" height="50" as="geometry" />
        </mxCell>
      </root>
    </mxGraphModel>
  </diagram>
</mxfile>
